<?xml version="1.0" encoding="UTF-8"?>
<svg width="28px" height="40px" viewBox="0 0 28 40" version="1.1" xmlns="http://www.w3.org/2000/svg" xmlns:xlink="http://www.w3.org/1999/xlink">
    <!-- Generator: Sketch 42 (36781) - http://www.bohemiancoding.com/sketch -->
    <title>noun_577876</title>
    <desc>Created with Sketch.</desc>
    <defs></defs>
    <g id="Page-1" stroke="none" stroke-width="1" fill="none" fill-rule="evenodd">
        <g id="Artboard" transform="translate(-53.000000, -104.000000)" fill-rule="nonzero" fill="#D50390">
            <g id="noun_577876" transform="translate(53.000000, 104.000000)">
                <g id="Group">
                    <path d="M14.0425532,0.00085106383 C6.43617021,0.00085106383 0.248085106,6.18893617 0.248085106,13.7944681 C0.248085106,21.1059574 12.7331915,38.8455319 13.2646809,39.5965957 C13.4425532,39.8493617 13.7331915,39.9991489 14.0421277,39.9991489 C14.3510638,39.9991489 14.6408511,39.8489362 14.8195745,39.5965957 C15.3510638,38.8451064 27.8361702,21.1059574 27.8361702,13.7944681 C27.8365957,6.18851064 21.6489362,0.00085106383 14.0425532,0.00085106383 Z M14.0425532,37.3714894 C11.2859574,33.333617 2.15319149,19.5225532 2.15319149,13.7940426 C2.15319149,7.2387234 7.48680851,1.90553191 14.0425532,1.90553191 C20.5982979,1.90553191 25.9319149,7.2387234 25.9319149,13.7940426 C25.9319149,19.5208511 16.7995745,33.3331915 14.0425532,37.3714894 Z" id="Shape"></path>
                    <path d="M14.0425532,7.76553191 C10.7187234,7.76553191 8.01446809,10.4697872 8.01446809,13.7940426 C8.01446809,17.1187234 10.7187234,19.8238298 14.0425532,19.8238298 C17.3668085,19.8238298 20.0714894,17.1191489 20.0714894,13.7940426 C20.0714894,10.4697872 17.3668085,7.76553191 14.0425532,7.76553191 Z M14.0425532,17.9191489 C11.7689362,17.9191489 9.91957447,16.0689362 9.91957447,13.7944681 C9.91957447,11.5204255 11.7693617,9.6706383 14.0425532,9.6706383 C16.3165957,9.6706383 18.166383,11.5208511 18.166383,13.7944681 C18.166383,16.0689362 16.3165957,17.9191489 14.0425532,17.9191489 Z" id="Shape"></path>
                </g>
            </g>
        </g>
    </g>
</svg>