<?xml version="1.0" encoding="UTF-8"?>
<svg width="161px" height="177px" viewBox="0 0 161 177" version="1.1" xmlns="http://www.w3.org/2000/svg" xmlns:xlink="http://www.w3.org/1999/xlink">
    <!-- Generator: Sketch 42 (36781) - http://www.bohemiancoding.com/sketch -->
    <title>Page 1</title>
    <desc>Created with Sketch.</desc>
    <defs>
        <polygon id="path-1" points="21.3412166 0.0774436756 21.3412166 21.3705556 0.059293121 21.3705556 0.059293121 0.0774436756 21.3412166 0.0774436756"></polygon>
    </defs>
    <g id="Page-1" stroke="none" stroke-width="1" fill="none" fill-rule="evenodd">
        <g id="Desktop-HD" transform="translate(-428.000000, -146.000000)">
            <g id="Page-1" transform="translate(428.000000, 146.000000)">
                <path d="M89.7687597,88.4141037 C89.7687597,94.6851126 84.6879279,99.7686106 78.4202082,99.7686106 C72.1524884,99.7686106 67.0716566,94.6851126 67.0716566,88.4141037 C67.0716566,82.1430949 72.1524884,77.0595968 78.4202082,77.0595968 C84.6879279,77.0595968 89.7687597,82.1430949 89.7687597,88.4141037" id="Fill-1" fill="#FFFFFF"></path>
                <path d="M28.3813599,89.1201019 C28.3874471,89.1201019 28.3928936,89.120743 28.3989809,89.1210635 C28.3672631,89.0624015 28.3352248,89.0043806 28.3031866,88.9463597 C28.2375083,89.0088684 28.170228,89.0716977 28.1045497,89.1342064 C28.1968197,89.1287569 28.2890898,89.1201019 28.3813599,89.1201019" id="Fill-3" fill="#874AE3"></path>
                <g id="Group-7" transform="translate(0.000000, 0.148157)" fill="#FFFFFF">
                    <path d="M120.629219,94.817838 C118.404753,96.6654873 116.103171,98.4803041 113.734112,100.260852 C113.949668,96.3383934 114.061445,92.3344692 114.061445,88.265906 C114.061445,84.1160823 113.945361,80.0331549 113.721396,76.0357972 C114.015914,76.1262918 114.319045,76.1722573 114.621561,76.1722573 C115.562744,76.1722573 116.492032,75.7413307 117.095628,74.9266741 C118.10757,73.561047 117.821051,71.6333684 116.455935,70.6211012 C116.45532,70.6206908 116.454705,70.6202804 116.454294,70.61987 C116.449782,70.6165867 116.446706,70.6143295 116.442399,70.6110462 C115.892538,70.2049492 115.252435,70.0091854 114.617459,70.0091854 C114.171171,70.0091854 113.728575,70.1091193 113.32105,70.2979062 C112.523023,60.7537017 111.101916,51.7738058 109.167455,43.6301129 C117.126598,41.6244571 124.489528,40.5762794 130.799907,40.5758689 L130.802163,40.5758689 C140.343003,40.5758689 146.963077,42.9424771 149.442682,47.2394314 C152.765845,52.9982531 149.295628,63.4236001 140.160263,75.1273628 C135.05605,81.6669825 128.484789,88.2917616 120.629219,94.817838 M107.255964,104.922863 C102.761501,108.019584 98.0553785,110.991746 93.1644651,113.816984 C81.0482409,120.816053 68.3518014,126.543274 56.4478511,130.379752 C55.4939517,130.687352 54.5482562,130.977919 53.6064575,131.260689 C52.8740613,128.151246 52.2181657,124.917859 51.6449237,121.563198 C50.9229874,117.338886 50.3462587,113.005405 49.9112511,108.585739 C50.5689925,107.448093 50.4200931,106.036706 49.5951989,105.062196 C49.1548587,99.5752682 48.9319199,93.964398 48.9319199,88.265906 C48.9319199,82.6156368 49.1515772,77.0517581 49.584739,71.6089493 C54.0794078,68.5124334 58.785325,65.5400656 63.6762383,62.7148283 C69.2166893,59.5142745 74.8785568,56.5837681 80.5305797,53.9741994 C80.4987899,55.1317505 81.1208447,56.2589315 82.2238485,56.8125696 L82.233488,56.8172893 C82.6760842,57.0395243 83.1469836,57.1447935 83.6107046,57.1447935 C84.7377046,57.1447935 85.8230702,56.5228227 86.3628817,55.4465321 C87.0124192,54.1506741 86.6596549,52.6171908 85.6007466,51.7202478 C90.6003606,49.582236 95.5618269,47.7093467 100.392442,46.1526754 C101.346547,45.8450759 102.292447,45.5545082 103.234246,45.271533 C103.966642,48.3807714 104.622333,51.6141578 105.19578,54.968614 C105.683497,57.8223744 106.103738,60.7270253 106.460604,63.6729219 C106.427173,63.6489132 106.396204,63.6226472 106.361543,63.5998696 C106.351903,63.5935083 106.342469,63.5873522 106.332829,63.5809909 C105.814553,63.2432265 105.232287,63.0817316 104.656584,63.0817316 C103.651615,63.0817316 102.666542,63.574014 102.076687,64.4791652 C101.148835,65.90307 101.550412,67.810023 102.973364,68.7385673 L102.982594,68.7445182 C103.50128,69.0828983 104.083752,69.2445984 104.660275,69.2445984 C105.51819,69.2445984 106.359902,68.8830304 106.955294,68.2144784 C107.587399,74.7309103 107.908578,81.435103 107.908578,88.265906 C107.908578,93.9161752 107.688921,99.4802591 107.255964,104.922863 M105.19578,121.563198 C104.611257,124.982293 103.94121,128.275394 103.191586,131.439421 C102.92004,131.238733 102.612806,131.077238 102.271938,130.972174 L102.261478,130.969301 C101.959987,130.876344 101.65501,130.832225 101.355161,130.832225 C100.040498,130.832225 98.8232562,131.682382 98.4159364,133.005327 C97.9185797,134.621712 98.8177186,136.334748 100.426078,136.845088 C100.443511,136.850424 100.461149,136.855759 100.478582,136.861094 C100.774535,136.950358 101.073564,136.99304 101.367877,136.99304 C101.500778,136.99304 101.632655,136.982164 101.762891,136.965132 C100.623175,141.012149 99.3405071,144.811075 97.9181696,148.331541 C92.3553632,162.099237 85.0662676,170.31865 78.4203517,170.31865 C71.7744358,170.31865 64.4855454,162.099237 58.9225339,148.331541 C57.5307555,144.886795 56.2720842,141.176722 55.151032,137.227587 C62.6749619,134.979381 70.6101084,131.970487 78.7169199,128.235995 C78.7460434,128.23661 78.7753721,128.240714 78.8040855,128.240714 C79.7391161,128.240714 80.6415364,127.811429 81.2295454,127.057718 C86.1969594,124.687622 91.2189288,122.049324 96.2408982,119.148162 C99.7625938,117.113983 103.172307,115.015165 106.459578,112.867098 C106.102917,115.810327 105.682882,118.7119 105.19578,121.563198 M136.072093,89.0255681 C153.049902,71.8084067 160.900139,54.7824947 154.771474,44.1613839 C150.973105,37.5790819 142.365655,34.4189531 130.797446,34.4197739 C123.973302,34.4201843 116.119168,35.5217149 107.618163,37.6687557 C105.60515,30.5668792 103.179896,24.232873 100.428539,18.879738 C99.0601415,20.4378456 97.2454562,21.5929343 95.1830154,22.1434944 C96.130967,24.0190513 97.0456931,26.0413286 97.9181696,28.2002711 C99.310153,31.6452219 100.568414,35.3555004 101.689671,39.3046353 C93.4007352,41.7814376 84.6123912,45.1812436 75.645409,49.4578829 C75.8757313,48.0893829 75.1568715,46.6905129 73.8253912,46.1198429 C73.8116498,46.113892 73.7960625,46.1073255 73.7823211,46.1013747 C73.3973568,45.9415214 72.9982409,45.8658014 72.6052778,45.8658014 C71.4114167,45.8660066 70.2753925,46.5655442 69.7759848,47.7331502 C69.141009,49.2163587 69.7624485,50.9197502 71.1626358,51.6615597 C67.6542715,53.4386191 64.1270383,55.3459826 60.5998052,57.38365 C57.0781097,59.417829 53.6683963,61.5168522 50.3809199,63.6647138 C50.7377861,60.7214848 51.1574116,57.8197068 51.6449237,54.968614 C53.3658804,44.8988841 55.814311,35.8927222 58.9225339,28.2002711 C64.4855454,14.4325749 71.7744358,6.21316204 78.4203517,6.21316204 C79.8574562,6.21316204 81.3245046,6.59832839 82.797911,7.33993264 C83.7153033,5.38475685 85.2092192,3.7554437 87.0608218,2.66909813 C84.2944931,0.963859801 81.4001848,0.057067001 78.4203517,0.057067001 C66.2864893,0.057067001 55.5692218,15.0635747 49.1325033,37.9864102 C48.0407797,38.2260875 47.1180549,39.0522354 46.8138982,40.2079397 C46.5081008,41.3700052 46.9109084,42.5497182 47.7526205,43.2956317 C45.9202969,50.9337041 44.5404141,59.3144066 43.7046498,68.2122212 C36.2785504,73.486353 29.6016651,78.9818991 23.8300715,84.4950926 C25.6863912,85.4654984 27.2209161,86.9661491 28.2316269,88.798203 C30.7200511,86.4297481 33.3811657,84.0656024 36.2114842,81.7141793 C38.4355403,79.8663247 40.7373275,78.0517131 43.1065912,76.27096 C42.8910358,80.1934186 42.7790536,84.1973428 42.7790536,88.265906 C42.7790536,104.552881 44.5629746,119.808301 47.6730434,132.902315 C39.714311,134.90797 32.3515861,135.956148 26.0430524,135.956148 C16.4991364,135.956148 9.87742178,133.589335 7.39761159,129.292381 C4.30230968,123.928165 7.10370968,114.514264 14.8850345,103.790552 C12.9327301,102.991491 11.2700205,101.630378 10.1003606,99.9060557 C0.807481656,112.602181 -2.57372344,124.324412 2.06922943,132.370428 C5.86739376,138.95273 14.4750485,142.112243 26.0432575,142.112243 C32.8674014,142.112243 40.7217403,141.010508 49.2227454,138.863672 C55.6693084,161.606749 66.3428906,176.474745 78.4203517,176.474745 C95.3171479,176.474745 109.467305,147.374473 113.136054,108.319591 C120.642961,102.987797 127.386092,97.4300743 133.20055,91.8563458 C133.924538,91.8112011 134.635604,91.5138618 135.187516,90.9589924 C135.724661,90.4191029 136.017743,89.7298254 136.072093,89.0255681" id="Fill-5"></path>
                </g>
                <path d="M3.87396764,46.646148 C4.44659439,47.1168841 5.13817656,47.3463012 5.82586191,47.3463012 C6.71454089,47.3463012 7.59645172,46.9629817 8.20497019,46.2228139 L8.2090721,46.2176838 C9.28807975,44.9047939 9.09959694,42.964598 7.78760076,41.8842033 C7.21497401,41.4128516 6.52298166,41.1830241 5.83529631,41.1830241 C4.94887338,41.1830241 4.0692186,41.564702 3.46131541,42.301997 C3.45516255,42.3095895 3.44880459,42.3173872 3.44244662,42.3249797 C2.37287338,43.6376644 2.56463771,45.5696522 3.87396764,46.646148" id="Fill-8" fill="#FFFFFF"></path>
                <path d="M0.0414498089,53.8350717 L0.0416549045,53.8377393 C0.0416549045,53.8395861 0.04186,53.8414329 0.04186,53.8432798 C0.0420650955,53.844511 0.0420650955,53.8461526 0.0422701911,53.847589 C0.145638344,55.4769022 1.49844854,56.7296675 3.10865363,56.7296675 C3.17346382,56.7296675 3.2388893,56.7276155 3.30431478,56.7235114 C5.00024981,56.617011 6.2888651,55.1553488 6.18262561,53.458729 L6.18221541,53.4505209 C6.08028293,51.8189505 4.72562688,50.5637227 3.11357592,50.5637227 C3.04938102,50.5637227 2.98498102,50.5655696 2.91976064,50.5696736 C1.2240307,50.6753533 -0.0647896815,52.1363998 0.0412447134,53.8330196 C0.0414498089,53.8338404 0.0414498089,53.834456 0.0414498089,53.8350717" id="Fill-10" fill="#FFFFFF"></path>
                <path d="M6.14745172,61.2462303 C5.71182879,61.2462303 5.26902752,61.3393925 4.84796637,61.5359772 C3.30851924,62.2548039 2.6431893,64.0864474 3.36204917,65.6267023 C3.36266446,65.6281388 3.36327975,65.6295752 3.36389503,65.6310116 C3.36738166,65.6388093 3.37045809,65.6449654 3.37414981,65.6525579 C3.89939949,66.7620915 5.00342879,67.4134063 6.15586064,67.4134063 C6.59168866,67.4134063 7.03448994,67.3202441 7.45555108,67.1236594 C8.99520331,66.4042171 9.66032815,64.5723685 8.94167338,63.0321135 L8.93736637,63.0230845 C8.41519312,61.9037013 7.30583134,61.2462303 6.14745172,61.2462303" id="Fill-12" fill="#FFFFFF"></path>
                <path d="M154.082025,125.388349 C153.796122,125.305447 153.507962,125.265843 153.22452,125.265843 C151.889964,125.265843 150.660211,126.141445 150.269914,127.487988 L150.267863,127.494555 C149.794913,129.127151 150.733635,130.835057 152.365375,131.309281 C152.651689,131.392594 152.940873,131.432198 153.224931,131.432198 C154.558052,131.432198 155.786369,130.557622 156.176666,129.2119 C156.177281,129.209643 156.178101,129.20718 156.178717,129.204923 C156.181178,129.195689 156.183434,129.188712 156.1861,129.179273 C156.644899,127.553243 155.706792,125.859291 154.082025,125.388349" id="Fill-14" fill="#FFFFFF"></path>
                <path d="M59.0228461,111.198673 L59.0136168,111.193133 C58.5125684,110.886559 57.9588104,110.74066 57.4116155,110.74066 C56.375678,110.74066 55.3639417,111.264133 54.7839315,112.213198 C53.8975085,113.663574 54.3540512,115.558009 55.8038716,116.444692 C55.8061276,116.446334 55.8085888,116.447976 55.811255,116.449617 C55.8139213,116.451054 55.817613,116.453311 55.8202792,116.454952 C56.3192767,116.758653 56.8705735,116.903321 57.4151022,116.903321 C58.4512448,116.903321 59.4627761,116.379438 60.0427862,115.430373 C60.9290041,113.980202 60.4724614,112.085356 59.0228461,111.198673" id="Fill-16" fill="#FFFFFF"></path>
                <path d="M126.114335,78.4328985 C126.11249,78.4312569 126.104901,78.4246904 126.10285,78.4230488 C126.101619,78.4220228 126.100389,78.4209967 126.099158,78.4199707 C126.091365,78.413199 126.085827,78.4086845 126.078034,78.4019128 C125.502741,77.9200958 124.802544,77.6847278 124.10563,77.6847278 C123.234384,77.6847278 122.36847,78.0530675 121.760157,78.7694317 C120.659614,80.0646741 120.817128,82.0073325 122.111691,83.1082475 L122.119895,83.1152244 C122.698879,83.6075068 123.406869,83.8482101 124.110962,83.8482101 C124.982208,83.8482101 125.847916,83.4798704 126.45664,82.7635062 C127.554311,81.471547 127.400284,79.5352499 126.114335,78.4328985" id="Fill-18" fill="#FFFFFF"></path>
                <path d="M37.5803534,41.6944314 L37.5910183,41.696073 C37.7514031,41.7211078 37.9107623,41.7332148 38.0684808,41.7332148 C39.5584999,41.7332148 40.8678298,40.6478953 41.1047152,39.1289814 C41.3653916,37.45596 40.2264961,35.8877974 38.558454,35.616724 C38.5440973,35.6144668 38.526254,35.6115939 38.5121024,35.6095419 C38.35664,35.5861487 38.2024082,35.5746573 38.0500222,35.5746573 C36.5600031,35.5748625 35.2508782,36.6599769 35.0144031,38.1790959 C34.7527011,39.8586839 35.9014413,41.4325922 37.5803534,41.6944314" id="Fill-20" fill="#FFFFFF"></path>
                <path d="M26.0327155,40.7240051 L26.0331257,40.7240051 L26.0433805,40.7240051 C26.0772213,40.7240051 26.1106518,40.7233895 26.1442875,40.7223635 C26.1777181,40.7235947 26.2113538,40.7242103 26.2449894,40.7242103 L26.2550391,40.7242103 C26.2589359,40.7244155 26.2624225,40.7244155 26.2661143,40.7244155 C27.9599983,40.7244155 29.3365996,39.3534532 29.3429576,37.6572438 C29.3489054,35.9651384 27.989327,34.586994 26.3011856,34.5683205 C26.2843678,34.5683205 26.2673448,34.5683205 26.250527,34.5681153 C26.2179168,34.5683205 26.1859219,34.5687309 26.1541321,34.5699621 C26.11742,34.5685257 26.0807079,34.5679101 26.0437907,34.5679101 L26.0431754,34.5679101 L26.029434,34.5679101 C24.331448,34.5693465 22.9556671,35.9468754 22.9560773,37.6461628 C22.9562824,39.3460658 24.3339092,40.7240051 26.0327155,40.7240051" id="Fill-22" fill="#FFFFFF"></path>
                <path d="M19.1105359,98.5682542 C19.0442901,98.5713322 18.9778391,98.5733843 18.9105678,98.5733843 C16.5940136,98.5733843 14.682113,96.8082266 14.4470735,94.5518126 C14.4310761,94.397705 14.4226671,94.2413402 14.4226671,94.0829233 C14.4226671,91.6114564 16.4285015,89.6002601 18.8970315,89.5928728 C18.9013385,89.5928728 18.9060557,89.5924624 18.9105678,89.5924624 C21.2892659,89.5924624 23.240955,91.4538603 23.3886238,93.7970753 C23.3947767,93.891674 23.3986735,93.9868883 23.3986735,94.0829233 C23.3986735,96.4918033 21.4927206,98.4631902 19.1105359,98.5682542 M30.3659741,89.8721543 L30.3579754,89.864767 C29.7703767,89.3269295 29.0310073,89.0605758 28.2928684,89.0581134 C28.2891767,89.0581134 28.285485,89.0574978 28.2817932,89.0574978 C28.2227257,89.0574978 28.1636582,89.0632434 28.1045907,89.0665267 C28.1466353,89.0265121 28.1897054,88.9864975 28.2317499,88.9462776 C27.2210391,87.1142238 25.6865143,85.613573 23.8301945,84.6431672 C23.4905563,84.4656665 23.1404582,84.3064288 22.7807206,84.1656594 C22.9363882,83.2590718 22.6888378,82.2929753 22.019406,81.5622468 L22.0118175,81.5544491 C21.4051448,80.8924637 20.5759436,80.5569565 19.743871,80.5569565 C19.0010149,80.5569565 18.2559028,80.8243362 17.6652276,81.3662778 C16.9935397,81.9829133 16.661285,82.828966 16.6717448,83.674403 C11.8704582,84.7034969 8.26980089,88.9717228 8.26980089,94.0829233 C8.26980089,96.2962447 8.94518051,98.3511492 10.1002786,100.05413 C11.2699385,101.778658 12.9328531,103.139565 14.8849525,103.938626 C16.1270111,104.44712 17.4855639,104.729479 18.9105678,104.729479 C24.4891665,104.729479 29.0619767,100.433346 29.5121614,94.9679646 C29.8983563,94.8011344 30.2564531,94.5516074 30.5587639,94.2208199 C31.7056582,92.9668233 31.619313,91.0198556 30.3659741,89.8721543" id="Fill-24" fill="#FFFFFF"></path>
                <path d="M9.67433618,76.189597 C9.67556675,76.1912386 9.67577185,76.191649 9.67700242,76.1932906 C9.67864318,76.1955479 9.68007885,76.1978051 9.68171962,76.2000623 C10.2830597,77.0356496 11.2252687,77.4801197 12.1810139,77.4801197 C12.8034789,77.4801197 13.4318916,77.291538 13.9760101,76.8998051 C15.3546623,75.9066218 15.6680483,73.9830473 14.6753859,72.6032612 L14.669233,72.5946427 C14.0678929,71.7590554 13.1254789,71.3145853 12.1693234,71.3145853 C11.5470636,71.3145853 10.9184457,71.5029618 10.3749425,71.8944895 C8.99608522,72.8874676 8.68269924,74.8100161 9.67433618,76.189597" id="Fill-26" fill="#FFFFFF"></path>
                <path d="M14.6809439,42.1012262 C14.9586433,42.1012262 15.2406497,42.0632636 15.5210153,41.9840552 L15.5296293,41.9815927 C17.1642408,41.5184492 18.1146535,39.8169045 17.651958,38.1812301 C17.2686344,36.8258631 16.0356,35.9408219 14.6940701,35.9408219 C14.4217032,35.9408219 14.1450293,35.977348 13.8697911,36.0536836 C13.854614,36.0579929 13.8390268,36.0625073 13.8234395,36.0668166 C12.2009287,36.5379631 11.2607707,38.2323256 11.7222357,39.8610232 C12.1059694,41.2163901 13.339414,42.1012262 14.6809439,42.1012262" id="Fill-28" fill="#FFFFFF"></path>
                <path d="M91.0686143,127.205136 L91.0581544,127.201032 C90.6914436,127.058211 90.3138627,126.990494 89.9426397,126.990494 C88.7112461,126.990494 87.5487646,127.735176 87.0747888,128.952236 C86.459092,130.534147 87.2398907,132.315721 88.8189213,132.935024 C88.8219977,132.936255 88.8244589,132.937281 88.8273302,132.938102 C88.8302015,132.939333 88.8330729,132.940359 88.835534,132.941385 C89.2022448,133.084412 89.5800308,133.152129 89.9514589,133.152129 C91.1824423,133.152129 92.3449238,132.407447 92.8186945,131.190387 C93.4352117,129.606424 92.6517468,127.822182 91.0686143,127.205136" id="Fill-30" fill="#FFFFFF"></path>
                <path d="M69.4086177,117.16079 L69.3987731,117.155865 C68.9354623,116.906748 68.4370801,116.788551 67.9454661,116.788551 C66.8492304,116.788756 65.7880661,117.376458 65.2326674,118.410477 C64.4284878,119.907845 64.9898343,121.773962 66.4866215,122.578564 C66.4872368,122.578769 66.487647,122.578974 66.4882623,122.579385 C66.4899031,122.580205 66.4923642,122.581847 66.494005,122.582668 C66.4948254,122.583078 66.4956457,122.583489 66.4966712,122.583899 C66.959982,122.833016 67.4583642,122.951008 67.9499782,122.951008 C69.0462139,122.951008 70.1071731,122.363306 70.6625718,121.329082 C71.4667515,119.831714 70.9051999,117.965597 69.4086177,117.16079" id="Fill-32" fill="#FFFFFF"></path>
                <g id="Group-36" transform="translate(139.464968, 100.287303)">
                    <mask id="mask-2" fill="white">
                        <use xlink:href="#path-1"></use>
                    </mask>
                    <g id="Clip-35"></g>
                    <path d="M6.21215936,10.7239996 C6.21215936,10.2663966 6.28148166,9.82438895 6.40925618,9.40803173 C6.97285873,7.57228418 8.68315045,6.23353872 10.7004702,6.23353872 C10.9642231,6.23353872 11.2224383,6.25775269 11.4736804,6.30166617 C13.5810371,6.66959545 15.1885759,8.51211469 15.1885759,10.7239996 C15.1885759,12.3461307 14.3243033,13.7700355 13.0322014,14.5592469 C12.5635581,14.8457105 12.0381033,15.04722 11.4775772,15.1457175 C11.2248995,15.1900414 10.9656587,15.2144606 10.7004702,15.2144606 C8.22558229,15.2144606 6.21215936,13.1999811 6.21215936,10.7239996 M10.7004702,0.0774436756 C4.82345745,0.0774436756 0.059293121,4.84431327 0.059293121,10.7239996 C0.059293121,16.6038912 4.82345745,21.3705556 10.7004702,21.3705556 C16.5770727,21.3705556 21.3414422,16.6038912 21.3414422,10.7239996 C21.3414422,4.84431327 16.5770727,0.0774436756 10.7004702,0.0774436756" id="Fill-34" fill="#FFFFFF" mask="url(#mask-2)"></path>
                </g>
                <path d="M136.499492,135.804011 C136.385459,135.804011 136.2704,135.810372 136.154316,135.823505 L136.144676,135.824531 C134.45592,136.013113 133.239703,137.535515 133.427981,139.224953 C133.603543,140.798451 134.935228,141.961747 136.481443,141.961747 C136.589939,141.961747 136.699665,141.956002 136.810211,141.944305 C136.827439,141.942458 136.844257,141.940406 136.86128,141.938765 C138.537731,141.738486 139.741232,140.222445 139.553569,138.540805 C139.377803,136.967513 138.045502,135.804011 136.499492,135.804011" id="Fill-37" fill="#FFFFFF"></path>
                <path d="M113.650761,134.097459 L113.640096,134.095202 C113.424746,134.049647 113.210216,134.027485 112.998558,134.027485 C111.57663,134.02769 110.29909,135.019847 109.992267,136.467556 C109.641349,138.122109 110.690412,139.747933 112.33815,140.111964 C112.35989,140.116478 112.381425,140.120993 112.403165,140.125507 C112.608671,140.167164 112.813561,140.187273 113.015581,140.187273 C114.437713,140.187273 115.715048,139.194911 116.022076,137.747203 C116.37443,136.084236 115.312856,134.449998 113.650761,134.097459" id="Fill-39" fill="#FFFFFF"></path>
                <path d="M125.073229,135.845092 L125.06277,135.844272 C124.972528,135.836474 124.882696,135.83237 124.793889,135.83237 C123.214654,135.83237 121.871278,137.042042 121.732223,138.645295 C121.585785,140.335553 122.833996,141.824713 124.521522,141.976358 C124.536084,141.977589 124.551261,141.979025 124.565823,141.980051 C124.648271,141.986823 124.73031,141.989901 124.811733,141.989901 C126.390763,141.989901 127.734344,140.780639 127.872784,139.177181 C128.019427,137.48364 126.765883,135.991813 125.073229,135.845092" id="Fill-41" fill="#FFFFFF"></path>
                <path d="M147.054098,132.732591 C146.539718,132.732591 146.018365,132.861664 145.539057,133.133763 L145.532084,133.137662 C144.054165,133.976328 143.535274,135.854963 144.373089,137.333862 C144.938948,138.333406 145.980013,138.894432 147.051432,138.894432 C147.560069,138.894432 148.075269,138.768027 148.55027,138.502289 C148.556218,138.4988 148.562986,138.494901 148.569344,138.491413 C148.571395,138.490387 148.573446,138.48895 148.575702,138.487719 C150.05362,137.649259 150.571897,135.771034 149.733466,134.292546 C149.166787,133.293206 148.125927,132.732386 147.054098,132.732591" id="Fill-43" fill="#FFFFFF"></path>
                <path d="M35.588486,102.384356 C35.5915624,102.386613 35.5942287,102.38887 35.5973051,102.391333 C36.1623433,102.838676 36.835672,103.055576 37.5042834,103.055576 C38.4122414,103.055576 39.3113803,102.655224 39.9186682,101.887559 C40.9730643,100.554354 40.7476643,98.6186726 39.4151586,97.5637231 L39.4065446,97.5569514 C38.8415064,97.1094033 38.1683828,96.8922983 37.4995662,96.8922983 C36.5918134,96.8925036 35.6924694,97.2928549 35.0851815,98.06052 C34.0307854,99.393725 34.2559803,101.329406 35.588486,102.384356" id="Fill-45" fill="#FFFFFF"></path>
                <path d="M95.8393006,57.3003786 C95.835814,57.2985318 95.8327376,57.2964797 95.8294561,57.2946329 C95.3464561,57.016993 94.8195656,56.8850474 94.2996484,56.8850474 C93.2341771,56.8850474 92.1982395,57.4395063 91.6295096,58.430022 C90.7830803,59.9042016 91.291307,61.7855042 92.7643032,62.6325829 L92.7739427,62.6379182 C93.2569427,62.9157633 93.7838331,63.0477089 94.3037503,63.0477089 C95.3692217,63.0477089 96.4051592,62.49325 96.9740943,61.5025291 C97.8205236,60.0285547 97.3125019,58.1470469 95.8393006,57.3003786" id="Fill-47" fill="#FFFFFF"></path>
                <path d="M141.092914,94.7180887 C140.406049,94.7180887 139.715082,94.9470954 139.142866,95.4170107 C137.829639,96.4955585 137.6389,98.4353441 138.716882,99.7494652 L138.723445,99.7576733 C139.331759,100.499072 140.21408,100.882802 141.103579,100.882802 C141.790034,100.882802 142.481411,100.654001 143.053627,100.184085 C144.365008,99.1071793 144.557388,97.171703 143.484533,95.8577871 C143.480431,95.8528622 143.476124,95.8477321 143.472227,95.8426021 C142.863914,95.1018186 141.982003,94.7180887 141.092914,94.7180887" id="Fill-49" fill="#FFFFFF"></path>
                <path d="M62.3868847,41.8052411 C62.3600172,41.7958018 62.3327395,41.7861572 62.305872,41.7767179 C61.9801803,41.666729 61.6487459,41.6144022 61.3226439,41.6144022 C60.0522822,41.6146074 58.8635484,42.4077176 58.4195166,43.6750524 C57.8573497,45.2791256 58.7013178,47.0354595 60.3047548,47.5981266 L60.3148045,47.6018202 C60.6517764,47.719812 60.9953115,47.7760377 61.3328987,47.7760377 C62.6032605,47.7760377 63.7921994,46.9827223 64.2362312,45.7155927 C64.7942962,44.1234213 63.9669408,42.3812464 62.3868847,41.8052411" id="Fill-51" fill="#FFFFFF"></path>
                <path d="M92.4337917,16.4962211 C92.2241841,16.4962211 92.0182682,16.4806257 91.8160439,16.452718 C89.6328019,16.1504538 87.945686,14.272024 87.945686,12.0057602 C87.945686,11.8454965 87.9545051,11.6872849 87.9709127,11.5313305 C88.2086185,9.27758407 90.1192885,7.51529926 92.4337917,7.51529926 C92.5070108,7.51529926 92.5800248,7.5173513 92.6522185,7.52083975 C95.0259943,7.63534312 96.9218975,9.6030363 96.9218975,12.0057602 C96.9218975,12.3049464 96.8917484,12.5973609 96.8357573,12.8803361 C96.4280274,14.9391395 94.6092401,16.4962211 92.4337917,16.4962211 M92.4337917,1.35920422 C90.4732834,1.35920422 88.6380885,1.89191165 87.0609038,2.81717273 C85.2090962,3.9035183 83.7151803,5.53283146 82.797993,7.48821245 C82.1544032,8.85979042 81.7928197,10.3901956 81.7928197,12.0057602 C81.7928197,17.8856518 86.5569841,22.6523162 92.4337917,22.6523162 C93.3848197,22.6523162 94.3056987,22.5257058 95.1828924,22.291569 C97.2455382,21.7412141 99.0602236,20.5861255 100.428416,19.0278126 C102.074513,17.1534869 103.074764,14.6969997 103.074764,12.0057602 C103.074764,6.12586861 98.3105994,1.35920422 92.4337917,1.35920422" id="Fill-53" fill="#FFFFFF"></path>
            </g>
        </g>
    </g>
</svg>