<svg fill="#FFFFFF" xmlns="http://www.w3.org/2000/svg" xmlns:xlink="http://www.w3.org/1999/xlink" version="1.1" x="0px" y="0px" viewBox="0 0 91 91" enable-background="new 0 0 91 91" xml:space="preserve"><g><path d="M41.43,29.267h-0.169c-0.939,0-1.615,0.761-1.615,1.7c0,0.938,0.846,1.7,1.785,1.7s1.7-0.761,1.7-1.7   C43.13,30.028,42.369,29.267,41.43,29.267z"></path><path d="M27.491,29.267h-0.17c-0.938,0-1.7,0.761-1.7,1.7c0,0.938,0.761,1.7,1.7,1.7h0.17c0.939,0,1.7-0.761,1.7-1.7   C29.19,30.028,28.43,29.267,27.491,29.267z"></path><path d="M34.461,29.267h-0.17c-0.938,0-1.7,0.761-1.7,1.7c0,0.938,0.761,1.7,1.7,1.7h0.17c0.938,0,1.7-0.761,1.7-1.7   C36.161,30.028,35.399,29.267,34.461,29.267z"></path><path d="M74.2,65.676V38.759v-3.4V23.174H17.947v12.186v3.4v33.436h49.734C71.276,72.195,74.2,69.271,74.2,65.676z M21.347,26.574   H70.8v8.786H21.347V26.574z M21.347,38.759H70.8v26.917c0,1.72-1.398,3.119-3.118,3.119H21.347V38.759z"></path></g></svg>