<?xml version="1.0" encoding="UTF-8"?>
<svg width="606px" height="13px" viewBox="0 0 606 13" version="1.1" xmlns="http://www.w3.org/2000/svg" xmlns:xlink="http://www.w3.org/1999/xlink">
    <!-- Generator: Sketch 42 (36781) - http://www.bohemiancoding.com/sketch -->
    <title>Page 1</title>
    <desc>Created with Sketch.</desc>
    <defs></defs>
    <g id="Page-1" stroke="none" stroke-width="1" fill="none" fill-rule="evenodd">
        <g id="Desktop-HD" transform="translate(-417.000000, -506.000000)" fill="#FFFFFF">
            <path d="M1023,519 C1015.314,519 1011.45,516.322 1007.713,513.733 C1004.2,511.299 1000.883,509 994.136,509 C987.389,509 984.07,511.299 980.558,513.733 C976.82,516.322 972.956,519 965.271,519 C957.587,519 953.723,516.322 949.986,513.733 C946.474,511.299 943.157,509 936.411,509 C929.664,509 926.347,511.299 922.834,513.733 C919.098,516.322 915.233,519 907.549,519 C899.865,519 896.001,516.322 892.265,513.733 C888.752,511.299 885.436,509 878.689,509 C871.943,509 868.626,511.299 865.114,513.733 C861.377,516.322 857.513,519 849.83,519 C842.147,519 838.283,516.322 834.547,513.733 C831.036,511.299 827.719,509 820.974,509 C814.229,509 810.912,511.299 807.4,513.733 C803.665,516.322 799.801,519 792.118,519 C784.436,519 780.573,516.322 776.837,513.733 C773.326,511.299 770.01,509 763.266,509 C756.52,509 753.203,511.299 749.691,513.733 C745.955,516.322 742.091,519 734.407,519 C726.724,519 722.861,516.322 719.125,513.733 C715.613,511.299 712.296,509 705.551,509 C698.806,509 695.489,511.299 691.977,513.733 C688.241,516.322 684.377,519 676.694,519 C669.012,519 665.148,516.322 661.412,513.733 C657.9,511.299 654.583,509 647.838,509 C641.093,509 637.776,511.299 634.265,513.733 C630.528,516.322 626.665,519 618.981,519 C611.299,519 607.436,516.322 603.7,513.733 C600.188,511.299 596.871,509 590.126,509 C583.381,509 580.063,511.299 576.552,513.733 C572.815,516.322 568.952,519 561.269,519 C553.585,519 549.722,516.322 545.986,513.733 C542.475,511.299 539.158,509 532.414,509 C525.669,509 522.352,511.299 518.841,513.733 C515.105,516.322 511.242,519 503.56,519 C495.877,519 492.014,516.322 488.278,513.733 C484.767,511.299 481.451,509 474.707,509 C467.962,509 464.646,511.299 461.134,513.733 C457.398,516.322 453.536,519 445.854,519 C438.171,519 434.308,516.322 430.572,513.733 C427.061,511.299 423.744,509 417,509 L417,506 C424.683,506 428.545,508.678 432.281,511.267 C435.792,513.701 439.109,516 445.854,516 C452.598,516 455.914,513.701 459.425,511.267 C463.161,508.678 467.024,506 474.707,506 C482.389,506 486.251,508.678 489.987,511.267 C493.499,513.701 496.815,516 503.56,516 C510.304,516 513.621,513.701 517.132,511.267 C520.868,508.678 524.731,506 532.414,506 C540.096,506 543.959,508.678 547.695,511.267 C551.207,513.701 554.523,516 561.269,516 C568.014,516 571.331,513.701 574.843,511.267 C578.579,508.678 582.443,506 590.126,506 C597.81,506 601.673,508.678 605.409,511.267 C608.92,513.701 612.237,516 618.981,516 C625.727,516 629.044,513.701 632.556,511.267 C636.292,508.678 640.155,506 647.838,506 C655.521,506 659.385,508.678 663.121,511.267 C666.633,513.701 669.95,516 676.694,516 C683.439,516 686.756,513.701 690.268,511.267 C694.004,508.678 697.868,506 705.551,506 C713.234,506 717.097,508.678 720.833,511.267 C724.345,513.701 727.662,516 734.407,516 C741.153,516 744.47,513.701 747.982,511.267 C751.718,508.678 755.582,506 763.266,506 C770.948,506 774.811,508.678 778.546,511.267 C782.058,513.701 785.374,516 792.118,516 C798.863,516 802.18,513.701 805.691,511.267 C809.427,508.678 813.291,506 820.974,506 C828.657,506 832.52,508.678 836.256,511.267 C839.768,513.701 843.085,516 849.83,516 C856.576,516 859.893,513.701 863.405,511.267 C867.142,508.678 871.005,506 878.689,506 C886.373,506 890.237,508.678 893.974,511.267 C897.486,513.701 900.803,516 907.549,516 C914.296,516 917.613,513.701 921.125,511.267 C924.862,508.678 928.727,506 936.411,506 C944.095,506 947.958,508.678 951.695,511.267 C955.208,513.701 958.525,516 965.271,516 C972.018,516 975.336,513.701 978.849,511.267 C982.586,508.678 986.45,506 994.136,506 C1001.82,506 1005.685,508.678 1009.422,511.267 C1012.935,513.701 1016.253,516 1023,516 L1023,519 Z" id="Page-1"></path>
        </g>
    </g>
</svg>